<svg width="254" height="195" viewBox="0 0 254 195" fill="none" xmlns="http://www.w3.org/2000/svg">
<rect width="254" height="195" fill="white"/>
<path d="M79.53 127.441C76.464 127.441 73.692 126.916 71.214 125.866C68.778 124.816 66.846 123.304 65.418 121.33C63.99 119.356 63.255 117.025 63.213 114.337H72.663C72.789 116.143 73.419 117.571 74.553 118.621C75.729 119.671 77.325 120.196 79.341 120.196C81.399 120.196 83.016 119.713 84.192 118.747C85.368 117.739 85.956 116.437 85.956 114.841C85.956 113.539 85.557 112.468 84.759 111.628C83.961 110.788 82.953 110.137 81.735 109.675C80.559 109.171 78.921 108.625 76.821 108.037C73.965 107.197 71.634 106.378 69.828 105.58C68.064 104.74 66.531 103.501 65.229 101.863C63.969 100.183 63.339 97.9571 63.339 95.1851C63.339 92.5811 63.99 90.3131 65.292 88.3811C66.594 86.4491 68.421 84.9791 70.773 83.9711C73.125 82.9211 75.813 82.3961 78.837 82.3961C83.373 82.3961 87.048 83.5091 89.862 85.7351C92.718 87.9191 94.293 90.9851 94.587 94.9331H84.885C84.801 93.4211 84.15 92.1821 82.932 91.2161C81.756 90.2081 80.181 89.7041 78.207 89.7041C76.485 89.7041 75.099 90.1451 74.049 91.0271C73.041 91.9091 72.537 93.1901 72.537 94.8701C72.537 96.0461 72.915 97.0331 73.671 97.8311C74.469 98.5871 75.435 99.2171 76.569 99.7211C77.745 100.183 79.383 100.729 81.483 101.359C84.339 102.199 86.67 103.039 88.476 103.879C90.282 104.719 91.836 105.979 93.138 107.659C94.44 109.339 95.091 111.544 95.091 114.274C95.091 116.626 94.482 118.81 93.264 120.826C92.046 122.842 90.261 124.459 87.909 125.677C85.557 126.853 82.764 127.441 79.53 127.441Z" fill="#0A426E"/>
<path d="M99.5456 117.235C99.5456 115.275 99.9306 113.537 100.701 112.02C101.494 110.503 102.556 109.337 103.886 108.52C105.239 107.703 106.744 107.295 108.401 107.295C109.847 107.295 111.107 107.587 112.181 108.17C113.277 108.753 114.152 109.488 114.806 110.375V107.61H119.741V127H114.806V124.165C114.176 125.075 113.301 125.833 112.181 126.44C111.084 127.023 109.812 127.315 108.366 127.315C106.732 127.315 105.239 126.895 103.886 126.055C102.556 125.215 101.494 124.037 100.701 122.52C99.9306 120.98 99.5456 119.218 99.5456 117.235ZM114.806 117.305C114.806 116.115 114.572 115.1 114.106 114.26C113.639 113.397 113.009 112.743 112.216 112.3C111.422 111.833 110.571 111.6 109.661 111.6C108.751 111.6 107.911 111.822 107.141 112.265C106.371 112.708 105.741 113.362 105.251 114.225C104.784 115.065 104.551 116.068 104.551 117.235C104.551 118.402 104.784 119.428 105.251 120.315C105.741 121.178 106.371 121.843 107.141 122.31C107.934 122.777 108.774 123.01 109.661 123.01C110.571 123.01 111.422 122.788 112.216 122.345C113.009 121.878 113.639 121.225 114.106 120.385C114.572 119.522 114.806 118.495 114.806 117.305ZM136.006 127L129.426 118.74V127H124.526V101.1H129.426V115.835L135.936 107.61H142.306L133.766 117.34L142.376 127H136.006ZM143.706 117.235C143.706 115.275 144.091 113.537 144.861 112.02C145.654 110.503 146.716 109.337 148.046 108.52C149.399 107.703 150.904 107.295 152.561 107.295C154.007 107.295 155.267 107.587 156.341 108.17C157.437 108.753 158.312 109.488 158.966 110.375V107.61H163.901V127H158.966V124.165C158.336 125.075 157.461 125.833 156.341 126.44C155.244 127.023 153.972 127.315 152.526 127.315C150.892 127.315 149.399 126.895 148.046 126.055C146.716 125.215 145.654 124.037 144.861 122.52C144.091 120.98 143.706 119.218 143.706 117.235ZM158.966 117.305C158.966 116.115 158.732 115.1 158.266 114.26C157.799 113.397 157.169 112.743 156.376 112.3C155.582 111.833 154.731 111.6 153.821 111.6C152.911 111.6 152.071 111.822 151.301 112.265C150.531 112.708 149.901 113.362 149.411 114.225C148.944 115.065 148.711 116.068 148.711 117.235C148.711 118.402 148.944 119.428 149.411 120.315C149.901 121.178 150.531 121.843 151.301 122.31C152.094 122.777 152.934 123.01 153.821 123.01C154.731 123.01 155.582 122.788 156.376 122.345C157.169 121.878 157.799 121.225 158.266 120.385C158.732 119.522 158.966 118.495 158.966 117.305ZM179.431 107.33C181.741 107.33 183.608 108.065 185.031 109.535C186.455 110.982 187.166 113.012 187.166 115.625V127H182.266V116.29C182.266 114.75 181.881 113.572 181.111 112.755C180.341 111.915 179.291 111.495 177.961 111.495C176.608 111.495 175.535 111.915 174.741 112.755C173.971 113.572 173.586 114.75 173.586 116.29V127H168.686V107.61H173.586V110.025C174.24 109.185 175.068 108.532 176.071 108.065C177.098 107.575 178.218 107.33 179.431 107.33ZM210.376 107.61L198.371 136.17H193.156L197.356 126.51L189.586 107.61H195.081L200.086 121.155L205.161 107.61H210.376Z" fill="#0082EB"/>
<rect width="64.1781" height="11.8552" transform="matrix(0.720306 -0.693656 0.727281 0.68634 31 95.0055)" fill="#0A426E"/>
<rect width="54.4984" height="11.8486" transform="matrix(0.727281 0.68634 -0.720306 0.693656 77.5352 50.1176)" fill="#0A426E"/>
<path d="M93.2344 47.0563L104.973 47L105.149 79.9L93.4102 79.9563L93.2344 47.0563Z" fill="#0A426E"/>
<rect width="12.8801" height="44.5721" transform="matrix(0.999989 -0.00479105 0.00534348 0.999986 42 85.1793)" fill="#0A426E"/>
</svg>
