<svg width="238" height="251" viewBox="0 0 238 251" fill="none" xmlns="http://www.w3.org/2000/svg">
<path d="M132.7 229.19C124.427 229.19 116.947 227.773 110.26 224.94C103.687 222.107 98.4733 218.027 94.62 212.7C90.7667 207.373 88.7833 201.083 88.67 193.83H114.17C114.51 198.703 116.21 202.557 119.27 205.39C122.443 208.223 126.75 209.64 132.19 209.64C137.743 209.64 142.107 208.337 145.28 205.73C148.453 203.01 150.04 199.497 150.04 195.19C150.04 191.677 148.963 188.787 146.81 186.52C144.657 184.253 141.937 182.497 138.65 181.25C135.477 179.89 131.057 178.417 125.39 176.83C117.683 174.563 111.393 172.353 106.52 170.2C101.76 167.933 97.6233 164.59 94.11 160.17C90.71 155.637 89.01 149.63 89.01 142.15C89.01 135.123 90.7667 129.003 94.28 123.79C97.7933 118.577 102.723 114.61 109.07 111.89C115.417 109.057 122.67 107.64 130.83 107.64C143.07 107.64 152.987 110.643 160.58 116.65C168.287 122.543 172.537 130.817 173.33 141.47H147.15C146.923 137.39 145.167 134.047 141.88 131.44C138.707 128.72 134.457 127.36 129.13 127.36C124.483 127.36 120.743 128.55 117.91 130.93C115.19 133.31 113.83 136.767 113.83 141.3C113.83 144.473 114.85 147.137 116.89 149.29C119.043 151.33 121.65 153.03 124.71 154.39C127.883 155.637 132.303 157.11 137.97 158.81C145.677 161.077 151.967 163.343 156.84 165.61C161.713 167.877 165.907 171.277 169.42 175.81C172.933 180.343 174.69 186.293 174.69 193.66C174.69 200.007 173.047 205.9 169.76 211.34C166.473 216.78 161.657 221.143 155.31 224.43C148.963 227.603 141.427 229.19 132.7 229.19Z" fill="#0A426E"/>
<rect width="178.568" height="32.9805" transform="matrix(0.715025 -0.699099 0.722059 0.691831 0 134.616)" fill="#0A426E"/>
<rect width="151.612" height="32.9674" transform="matrix(0.722059 0.691831 -0.715025 0.699099 128.527 8.74048)" fill="#0A426E"/>
<path d="M171.895 0.157715L204.317 6.45411e-07L204.803 92.2584L172.381 92.4161L171.895 0.157715Z" fill="#0A426E"/>
<rect width="35.5745" height="124.989" transform="matrix(0.999988 -0.0048643 0.00526301 0.999986 30.3823 107.062)" fill="#0A426E"/>
</svg>
